<?xml version="1.0" encoding="UTF-8"?>
<svg id="Layer_1" xmlns="http://www.w3.org/2000/svg" xmlns:xlink="http://www.w3.org/1999/xlink" version="1.1" viewBox="0 0 4312 1451">
  <defs>
    <style>
      .st0 {
        stroke: #4285F4;
      }

      .st0, .st1, .st2, .st3, .st4, .st5, .st6, .st7, .st8, .st9, .st10, .st11, .st12, .st13, .st14, .st15, .st16, .st17, .st18, .st19, .st20, .st21, .st22, .st23, .st24, .st25, .st26, .st27, .st28, .st29, .st30, .st31, .st32, .st33, .st34, .st35, .st36, .st37, .st38, .st39, .st40, .st41, .st42, .st43, .st44, .st45, .st46, .st47, .st48, .st49, .st50, .st51, .st52, .st53, .st54, .st55, .st56, .st57, .st58, .st59, .st60, .st61, .st62, .st63, .st64, .st65, .st66, .st67, .st68, .st69, .st70, .st71, .st72, .st73, .st74, .st75, .st76, .st77, .st78, .st79, .st80, .st81 {
        fill: none;
        stroke-miterlimit: 10;
        stroke-width: 7px;
      }

      .st1 {
        stroke: #FBBC05;
      }

      .st2 {
        stroke: #34A853;
      }

      .st3 {
        stroke: #4285F4;
      }

      .st4 {
        stroke: #FBBC05;
      }

      .st5 {
        stroke: #34A853;
      }

      .st6 {
        stroke: #4285F4;
      }

      .st7 {
        stroke: #FBBC05;
      }

      .st8 {
        stroke: #34A853;
      }

      .st9 {
        stroke: #4285F4;
      }

      .st10 {
        stroke: #FBBC05;
      }

      .st11 {
        stroke: #34A853;
      }

      .st12 {
        stroke: #4285F4;
      }

      .st13 {
        stroke: #FBBC05;
      }

      .st14 {
        stroke: #34A853;
      }

      .st15 {
        stroke: #4285F4;
      }

      .st16 {
        stroke: #FBBC05;
      }

      .st17 {
        stroke: #34A853;
      }

      .st18 {
        stroke: #4285F4;
      }

      .st19 {
        stroke: #FBBC05;
      }

      .st20 {
        stroke: #34A853;
      }

      .st21 {
        stroke: #4285F4;
      }

      .st22 {
        stroke: #FBBC05;
      }

      .st23 {
        stroke: #34A853;
      }

      .st24 {
        stroke: #4285F4;
      }

      .st25 {
        stroke: #FBBC05;
      }

      .st26 {
        stroke: #34A853;
      }

      .st27 {
        stroke: #4285F4;
      }

      .st28 {
        stroke: #FBBC05;
      }

      .st29 {
        stroke: #34A853;
      }

      .st30 {
        stroke: #4285F4;
      }

      .st31 {
        stroke: #FBBC05;
      }

      .st32 {
        stroke: #34A853;
      }

      .st33 {
        stroke: #4285F4;
      }

      .st34 {
        stroke: #FBBC05;
      }

      .st35 {
        stroke: #34A853;
      }

      .st36 {
        stroke: #4285F4;
      }

      .st37 {
        stroke: #FBBC05;
      }

      .st38 {
        stroke: #34A853;
      }

      .st39 {
        stroke: #4285F4;
      }

      .st40 {
        stroke: #FBBC05;
      }

      .st41 {
        stroke: #34A853;
      }

      .st42 {
        stroke: #4285F4;
      }

      .st43 {
        stroke: #FBBC05;
      }

      .st44 {
        stroke: #34A853;
      }

      .st45 {
        stroke: #4285F4;
      }

      .st46 {
        stroke: #FBBC05;
      }

      .st47 {
        stroke: #34A853;
      }

      .st48 {
        stroke: #4285F4;
      }

      .st49 {
        stroke: #FBBC05;
      }

      .st50 {
        stroke: #34A853;
      }

      .st51 {
        stroke: #4285F4;
      }

      .st52 {
        stroke: #FBBC05;
      }

      .st82 {
        display: none;
        fill: url(#linear-gradient);
      }

      .st83 {
        opacity: .85;
      }

      .st84 {
        opacity: .85;
      }

      .st53 {
        stroke: #34A853;
      }

      .st54 {
        stroke: #4285F4;
      }

      .st55 {
        stroke: #FBBC05;
      }

      .st56 {
        stroke: #34A853;
      }

      .st57 {
        stroke: #4285F4;
      }

      .st58 {
        stroke: #FBBC05;
      }

      .st59 {
        stroke: #34A853;
      }

      .st60 {
        stroke: #4285F4;
      }

      .st61 {
        stroke: #FBBC05;
      }

      .st62 {
        stroke: #34A853;
      }

      .st63 {
        stroke: #4285F4;
      }

      .st64 {
        stroke: #FBBC05;
      }

      .st65 {
        stroke: #34A853;
      }

      .st66 {
        stroke: #4285F4;
      }

      .st67 {
        stroke: #FBBC05;
      }

      .st68 {
        stroke: #34A853;
      }

      .st69 {
        stroke: #4285F4;
      }

      .st70 {
        stroke: #FBBC05;
      }

      .st71 {
        stroke: #34A853;
      }

      .st72 {
        stroke: #4285F4;
      }

      .st73 {
        stroke: #FBBC05;
      }

      .st74 {
        stroke: #34A853;
      }

      .st75 {
        stroke: #4285F4;
      }

      .st76 {
        stroke: #FBBC05;
      }

      .st77 {
        stroke: #34A853;
      }

      .st78 {
        stroke: #4285F4;
      }

      .st79 {
        stroke: #FBBC05;
      }

      .st80 {
        stroke: #34A853;
      }

      .st81 {
        stroke: #4285F4;
      }
    </style>
    <linearGradient id="linear-gradient" x1="-4.1" y1="725.2" x2="4307.5" y2="725.2" gradientUnits="userSpaceOnUse">
      <stop offset="0" stop-color="#f4f2ee"/>
      <stop offset=".3" stop-color="#eeebe5"/>
      <stop offset=".5" stop-color="#eae6df"/>
    </linearGradient>
  </defs>
  <rect class="st82" x="-4.1" y="-.5" width="4311" height="1451"/>
  <g class="st83">
    <path class="st72" d="M2445.6,1899.3C1485.9-1148.8-3233,4897.3-5237.7-791.3"/>
    <path class="st26" d="M2427.3,1933.7C1426.6-1225.2-3217.1,4843.4-5261.8-715.6"/>
    <path class="st33" d="M2409.1,1968C1367.3-1301.6-3201.2,4789.5-5285.9-639.9"/>
    <path class="st58" d="M2390.9,2002.4C1308-1377.9-3185.3,4735.6-5310.1-564.2"/>
    <path class="st29" d="M2372.7,2036.7C1248.7-1454.3-3169.4,4681.7-5334.2-488.5"/>
    <path class="st46" d="M2354.5,2071.1C1189.4-1530.6-3153.6,4627.9-5358.3-412.8"/>
    <path class="st18" d="M2336.2,2105.4C1130.1-1607-3137.7,4574-5382.4-337.1"/>
    <path class="st14" d="M2318,2139.8C1070.8-1683.3-3121.8,4520.1-5406.5-261.3"/>
    <path class="st13" d="M2299.8,2174.2C1011.5-1759.7-3105.9,4466.2-5430.6-185.6"/>
    <path class="st66" d="M2281.6,2208.5C952.2-1836-3090,4412.3-5454.7-109.9"/>
    <path class="st50" d="M2263.3,2242.9C892.9-1912.4-3074.2,4358.4-5478.8-34.2"/>
    <path class="st80" d="M2245.1,2277.2C833.6-1988.7-3058.3,4304.5-5502.9,41.5"/>
    <path class="st68" d="M2226.9,2311.6C774.3-2065.1-3042.4,4250.6-5527.1,117.2"/>
    <path class="st74" d="M2208.7,2345.9C714.9-2141.5-3026.5,4196.7-5551.2,192.9"/>
    <path class="st32" d="M2190.4,2380.3C655.6-2217.8-3010.6,4142.8-5575.3,268.6"/>
    <path class="st23" d="M2172.2,2414.6C596.3-2294.2-2994.8,4088.9-5599.4,344.3"/>
    <path class="st11" d="M2154,2449C537-2370.5-2978.9,4035-5623.5,420"/>
    <path class="st3" d="M2135.8,2483.3C477.7-2446.9-2963,3981.2-5647.6,495.8"/>
    <path class="st24" d="M2117.5,2517.7C418.4-2523.2-2947.1,3927.3-5671.7,571.5"/>
    <path class="st0" d="M2099.3,2552C359.1-2599.6-2931.2,3873.4-5695.8,647.2"/>
    <path class="st30" d="M2081.1,2586.4C299.8-2675.9-2915.4,3819.5-5720,722.9"/>
    <path class="st42" d="M2062.9,2620.8C240.5-2752.3-2899.5,3765.6-5744.1,798.6"/>
    <path class="st19" d="M2044.6,2655.1C181.2-2828.6-2883.6,3711.7-5768.2,874.3"/>
    <path class="st76" d="M2026.4,2689.5C121.9-2905-2867.7,3657.8-5792.3,950"/>
    <path class="st55" d="M2008.2,2723.8C62.6-2981.4-2851.8,3603.9-5816.4,1025.7"/>
    <path class="st59" d="M1990,2758.2C3.3-3057.7-2835.9,3550-5840.5,1101.4"/>
    <path class="st31" d="M1971.7,2792.5C-56-3134.1-2820.1,3496.1-5864.6,1177.1"/>
    <path class="st45" d="M1953.5,2826.9C-115.3-3210.4-2804.2,3442.2-5888.7,1252.9"/>
    <path class="st6" d="M1935.3,2861.2C-174.6-3286.8-2788.3,3388.3-5912.9,1328.6"/>
    <path class="st7" d="M1917.1,2895.6C-233.9-3363.1-2772.4,3334.5-5937,1404.3"/>
    <path class="st17" d="M1898.8,2929.9C-293.2-3439.5-2756.5,3280.6-5961.1,1480"/>
    <path class="st53" d="M1880.6,2964.3C-352.5-3515.8-2740.7,3226.7-5985.2,1555.7"/>
    <path class="st71" d="M1862.4,2998.6C-411.8-3592.2-2724.8,3172.8-6009.3,1631.4"/>
    <path class="st49" d="M1844.2,3033c-2315.3-6701.5-4553.1,85.9-7877.6-1325.9"/>
    <path class="st39" d="M1825.9,3067.4c-2356.4-6812.2-4519-2.4-7883.5-1284.5"/>
    <path class="st65" d="M1807.7,3101.7c-2397.5-6923-4484.8-90.6-7889.3-1243.2"/>
    <path class="st75" d="M1789.5,3136.1c-2438.5-7033.7-4450.7-178.8-7895.2-1201.8"/>
    <path class="st47" d="M1771.3,3170.4C-708.4-3974-2645.4,2903.3-6129.9,2010"/>
    <path class="st15" d="M1753,3204.8c-2520.7-7255.1-4382.5-355.3-7907-1119.1"/>
    <path class="st36" d="M1734.8,3239.1c-2561.8-7365.8-4348.4-443.6-7912.9-1077.7"/>
    <path class="st27" d="M1716.6,3273.5c-2602.9-7476.5-4314.3-531.8-7918.8-1036.4"/>
    <path class="st70" d="M1698.4,3307.8c-2643.9-7587.2-4280.2-620.1-7924.7-995"/>
  </g>
  <g class="st84">
    <path class="st70" d="M8476.5,3835.9C7517.3,105.2,3116.1,4242.2,3683.8-1977.8"/>
    <path class="st27" d="M8439.9,3847.6C7483.7,34.2,3133.5,4191.9,3650.7-1935.5"/>
    <path class="st60" d="M8403.2,3859.3C7450.1-36.8,3150.8,4141.6,3617.6-1893.3"/>
    <path class="st1" d="M8366.5,3871C7416.5-107.7,3168.2,4091.3,3584.5-1851"/>
    <path class="st48" d="M8329.8,3882.7C7382.9-178.7,3185.5,4041,3551.4-1808.8"/>
    <path class="st5" d="M8293.1,3894.4C7349.3-249.6,3202.9,3990.7,3518.4-1766.6"/>
    <path class="st28" d="M8256.4,3906.1c-940.7-4226.7-5036.2,34.3-4771.2-5630.4"/>
    <path class="st73" d="M8219.7,3917.8c-937.6-4309.4-4982.2-27.7-4767.6-5599.8"/>
    <path class="st9" d="M8183.1,3929.5c-934.5-4392-4928.2-89.8-4764-5569.3"/>
    <path class="st38" d="M8146.4,3941.2c-931.5-4474.7-4874.1-151.8-4760.4-5538.7"/>
    <path class="st16" d="M8109.7,3952.9c-928.4-4557.3-4820.1-213.8-4756.8-5508.2"/>
    <path class="st12" d="M8073,3964.5C7147.7-675.4,3306.9,3688.8,3319.8-1513.1"/>
    <path class="st21" d="M8036.3,3976.2C7114.1-746.4,3324.3,3638.5,3286.8-1470.8"/>
    <path class="st4" d="M7999.6,3987.9C7080.5-817.4,3341.6,3588.1,3253.7-1428.6"/>
    <path class="st54" d="M7962.9,3999.6C7046.9-888.3,3359,3537.8,3220.6-1386.4"/>
    <path class="st8" d="M7926.3,4011.3C7013.3-959.3,3376.3,3487.5,3187.5-1344.1"/>
    <path class="st37" d="M7889.6,4023C6979.7-1030.3,3393.7,3437.2,3154.4-1301.9"/>
    <path class="st22" d="M7852.9,4034.7C6946.1-1101.2,3411,3386.9,3121.3-1259.6"/>
    <path class="st56" d="M7816.2,4046.4C6912.5-1172.2,3428.4,3336.6,3088.2-1217.4"/>
    <path class="st69" d="M7779.5,4058.1C6878.9-1243.1,3445.7,3286.3,3055.2-1175.1"/>
    <path class="st2" d="M7742.8,4069.8C6845.3-1314.1,3463.1,3235.9,3022.1-1132.9"/>
    <path class="st77" d="M7706.2,4081.5C6811.7-1385.1,3480.4,3185.6,2989-1090.6"/>
    <path class="st51" d="M7669.5,4093.2C6778-1456,3497.8,3135.3,2955.9-1048.4"/>
    <path class="st25" d="M7632.8,4104.9C6744.4-1527,3515.1,3085,2922.8-1006.2"/>
    <path class="st67" d="M7596.1,4116.6C6710.8-1598,3532.5,3034.7,2889.7-963.9"/>
    <path class="st57" d="M7559.4,4128.3C6677.2-1668.9,3549.8,2984.4,2856.6-921.7"/>
    <path class="st20" d="M7522.7,4140C6643.6-1739.9,3567.1,2934.1,2823.5-879.4"/>
    <path class="st44" d="M7486,4151.6C6610-1810.9,3584.5,2883.7,2790.5-837.2"/>
    <path class="st10" d="M7449.4,4163.3C6576.4-1881.8,3601.8,2833.4,2757.4-794.9"/>
    <path class="st61" d="M7412.7,4175C6542.8-1952.8,3619.2,2783.1,2724.3-752.7"/>
    <path class="st40" d="M7376,4186.7C6509.2-2023.7,3636.5,2732.8,2691.2-710.4"/>
    <path class="st35" d="M7339.3,4198.4C6475.6-2094.7,3653.9,2682.5,2658.1-668.2"/>
    <path class="st34" d="M7302.6,4210.1C6442-2165.7,3671.2,2632.2,2625-626"/>
    <path class="st43" d="M7265.9,4221.8C6408.4-2236.6,3688.6,2581.9,2591.9-583.7"/>
    <path class="st64" d="M7229.2,4233.5C6374.8-2307.6,3705.9,2531.5,2558.9-541.5"/>
    <path class="st62" d="M7192.6,4245.2C6341.2-2378.6,3723.3,2481.2,2525.8-499.2"/>
    <path class="st52" d="M7155.9,4256.9C6307.6-2449.5,3740.6,2430.9,2492.7-457"/>
    <path class="st63" d="M7119.2,4268.6C6274-2520.5,3758,2380.6,2459.6-414.7"/>
    <path class="st78" d="M7082.5,4280.3C6240.4-2591.5,3775.3,2330.3,2426.5-372.5"/>
    <path class="st79" d="M7045.8,4292C6206.8-2662.4,3792.7,2280,2393.4-330.2"/>
    <path class="st81" d="M7009.1,4303.7C6173.2-2733.4,3810,2229.7,2360.3-288"/>
    <path class="st41" d="M6972.4,4315.4C6139.6-2804.3,3827.3,2179.3,2327.2-245.7"/>
  </g>
</svg>